<svg width="500" height="131" viewBox="0 0 500 131" fill="none" xmlns="http://www.w3.org/2000/svg">
<g clip-path="url(#clip0)">
<path d="M351.992 66.6823C354.364 68.1011 356.736 69.9928 358.159 72.3574L359.583 74.722L340.133 87.491L336.812 81.343L349.146 73.3033C348.672 72.8303 348.197 72.8303 347.723 72.8303C346.3 71.8845 344.877 71.8845 343.928 71.8845C342.979 71.8845 342.03 71.8845 341.556 71.8845C330.645 74.722 332.543 91.2744 343.928 91.2744C349.146 91.2744 353.416 87.491 353.416 81.8159V81.343H361.006V82.2888C360.531 86.5451 358.634 90.8014 355.787 93.639C352.941 96.4765 348.672 98.3682 343.928 98.3682C339.184 98.3682 334.915 96.4765 332.068 93.639C328.748 90.8014 326.85 86.5451 326.85 81.343C326.85 76.6137 328.748 72.3574 332.068 69.5199C334.915 66.2094 339.184 64.7906 343.928 64.7906C346.774 64.7906 349.62 65.2635 351.992 66.6823ZM166.509 66.6823C168.88 68.1011 170.778 69.9928 172.676 72.3574L173.624 74.722L154.649 87.491L150.854 81.343L163.188 73.3033C162.713 72.8303 162.713 72.8303 162.239 72.8303C160.816 71.8845 159.393 71.8845 157.97 71.8845C157.495 71.8845 156.546 71.8845 155.598 71.8845C145.161 74.722 147.059 91.2744 157.97 91.2744C163.662 91.2744 167.457 87.491 167.932 81.8159V81.343H175.047V82.2888C175.047 86.5451 173.15 90.8014 169.829 93.639C166.983 96.4765 163.188 98.3682 158.444 98.3682C153.7 98.3682 149.431 96.4765 146.11 93.639C143.264 90.8014 141.366 86.5451 141.366 81.343C141.366 76.6137 143.264 72.3574 146.11 69.5199C149.431 66.2094 153.226 64.7906 158.444 64.7906C161.29 64.7906 164.137 65.2635 166.509 66.6823ZM262.808 64.7906C252.846 64.7906 245.731 72.3574 245.731 81.8159C245.731 90.8014 252.846 98.3682 262.808 98.3682C272.296 98.3682 279.886 90.8014 279.886 81.8159C279.886 72.3574 272.296 64.7906 262.808 64.7906ZM262.808 71.8845C268.501 71.8845 271.822 76.6137 271.822 81.8159C271.822 87.0181 268.501 91.2744 262.808 91.2744C257.116 91.2744 253.321 87.0181 253.321 81.8159C253.321 76.6137 257.116 71.8845 262.808 71.8845ZM209.203 108.3H216.793V94.1119C220.114 97.8953 223.909 98.3682 226.755 98.3682C236.717 98.3682 242.884 90.3285 242.884 81.343C242.884 71.4116 235.294 64.7906 226.755 64.7906C224.383 64.7906 219.165 65.2635 216.319 69.9928V65.7365H209.203V108.3ZM225.806 71.8845C232.448 71.8845 234.82 77.0866 234.82 81.343C234.82 87.0181 231.025 91.2744 225.332 91.2744C220.114 91.2744 216.319 87.491 216.319 81.343C216.319 76.1408 220.114 71.8845 225.806 71.8845ZM179.317 65.7365V97.4224H193.074C200.19 97.4224 203.985 93.1661 203.985 87.9639C203.985 84.6534 201.613 81.8159 197.818 80.3971C200.664 79.4513 202.562 77.0866 202.562 73.7762C202.562 69.9928 200.19 65.7365 193.548 65.7365H179.317ZM186.907 72.3574H192.125C194.497 72.3574 194.972 73.7762 194.972 75.1949C194.972 77.0866 193.548 78.0325 192.125 78.0325H186.907V72.3574ZM186.907 84.6534H192.6C195.92 84.6534 196.395 87.0181 196.395 87.9639C196.395 88.9097 195.446 90.8014 192.6 90.8014H186.907V84.6534ZM500 65.7365H492.884V69.9928C490.512 66.6823 487.192 64.7906 482.448 64.7906C473.909 64.7906 466.793 71.8845 466.793 81.8159C466.793 92.2202 474.383 98.3682 482.448 98.3682C483.871 98.3682 489.089 98.3682 492.884 93.1661V97.4224H500V65.7365ZM483.871 71.8845C489.089 71.8845 492.884 76.1408 492.884 81.343C492.884 87.491 489.089 91.2744 483.871 91.2744C478.178 91.2744 474.383 87.491 474.383 81.8159C474.383 76.1408 478.178 71.8845 483.871 71.8845ZM438.33 97.4224H445.92V82.2888L457.306 97.4224H467.268L453.51 80.3971L466.319 65.7365H457.306L445.92 80.3971V65.7365H438.33V97.4224ZM402.277 65.7365V97.4224H409.867L424.099 76.6137V97.4224H432.163V65.7365H424.099L409.867 86.0722V65.7365H402.277ZM383.302 65.7365H376.186L364.326 90.8014H360.531V105.462H368.121V97.4224H390.892V105.462H398.482V90.8014H394.687L383.302 65.7365ZM372.865 90.8014L379.507 76.1408L386.148 90.8014H372.865ZM283.681 65.7365V97.4224H291.271V74.2491L299.81 97.4224H305.977L314.516 74.2491V97.4224H322.106V65.7365H311.195L303.131 88.4368L294.592 65.7365H283.681Z" fill="#34386D"/>
<path d="M232.922 50.6029H231.973V40.1986H230.076V50.6029H226.281V40.1986H224.858V52.0217H231.973V54.8592H232.922V50.6029ZM242.41 50.13C241.935 50.6029 240.987 50.6029 240.038 50.6029C238.14 50.6029 237.192 48.7112 237.192 45.8736H243.359C243.359 45.4007 243.359 44.9278 243.359 43.9819C243.359 40.6715 241.461 39.7256 239.564 39.7256C237.192 39.7256 235.768 42.0903 235.768 45.8736C235.768 49.657 236.717 52.0217 239.564 52.0217C240.987 52.0217 242.41 51.5487 242.884 51.0758L242.41 50.13ZM239.564 41.1444C240.987 41.1444 241.935 42.0903 241.935 44.4549V44.9278H237.192C237.192 42.0903 238.14 41.1444 239.564 41.1444ZM252.372 52.0217H253.795V40.1986H252.372V45.4007H248.102V40.1986H246.679V52.0217H248.102V46.3466H252.372V52.0217ZM263.757 40.1986H256.641V41.6173H259.488V52.0217H260.911V41.6173H263.757V40.1986ZM266.603 56.278H268.027V51.5487C268.501 52.0217 268.975 52.0217 269.924 52.0217C272.77 52.0217 274.194 49.657 274.194 45.8736C274.194 41.6173 273.245 39.7256 270.398 39.7256C269.45 39.7256 268.501 40.6715 268.027 41.6173L267.552 40.1986H266.603V56.278ZM270.398 41.1444C272.296 41.1444 272.77 43.0361 272.77 45.8736C272.77 48.7112 271.822 50.6029 269.924 50.6029C268.975 50.6029 268.501 50.6029 268.027 50.13V43.509C268.501 42.0903 268.975 41.1444 270.398 41.1444ZM283.681 46.8195H287.476C287.476 49.1841 286.528 50.6029 284.63 50.6029C284.156 50.6029 283.207 50.6029 282.732 50.13L282.258 51.5487C282.732 52.0217 283.681 52.0217 284.63 52.0217C287.476 52.0217 288.899 50.13 288.899 45.8736C288.899 42.0903 287.951 39.7256 285.104 39.7256C283.681 39.7256 282.732 40.1986 282.258 40.6715L282.732 42.0903C283.207 41.6173 283.681 41.1444 284.63 41.1444C286.528 41.1444 287.476 42.5632 287.476 45.4007H283.681V46.8195ZM298.387 50.13C297.913 50.6029 297.438 50.6029 296.49 50.6029C294.118 50.6029 293.643 48.7112 293.643 45.8736C293.643 42.5632 294.592 41.1444 296.49 41.1444C296.964 41.1444 297.913 41.6173 298.387 41.6173L298.861 40.6715C298.387 40.1986 297.438 39.7256 296.015 39.7256C293.643 39.7256 292.22 42.0903 292.22 45.8736C292.22 49.657 293.169 52.0217 296.015 52.0217C296.964 52.0217 298.387 52.0217 298.861 51.0758L298.387 50.13ZM307.875 40.1986H300.285V41.6173H303.131V52.0217H304.554V41.6173H307.875V40.1986ZM316.414 50.13C315.939 50.6029 314.991 50.6029 314.042 50.6029C311.67 50.6029 311.195 48.7112 311.195 45.8736H316.888C316.888 45.4007 316.888 44.9278 316.888 43.9819C316.888 40.6715 315.465 39.7256 313.567 39.7256C310.721 39.7256 309.298 42.0903 309.298 45.8736C309.298 49.657 310.721 52.0217 313.567 52.0217C314.991 52.0217 315.939 51.5487 316.888 51.0758L316.414 50.13ZM313.567 41.1444C314.991 41.1444 315.465 42.0903 315.465 44.4549V44.9278H311.195C311.195 42.0903 312.144 41.1444 313.567 41.1444ZM326.376 40.1986H319.26V41.6173H322.106V52.0217H323.529V41.6173H326.376V40.1986ZM334.915 52.0217H336.338V40.1986H335.389L331.594 47.2924L330.645 49.1841V47.2924V40.1986H329.222V52.0217H330.171L334.44 44.9278L334.915 43.0361H335.389L334.915 44.9278V52.0217ZM340.133 40.1986V43.9819C340.133 46.8195 341.082 47.7653 342.979 47.7653C343.928 47.7653 344.877 47.2924 345.351 46.8195V52.0217H346.774V40.1986H345.351V45.4007C344.877 45.8736 344.402 46.3466 342.979 46.3466C341.556 46.3466 341.556 45.4007 341.556 43.509V40.1986H340.133ZM357.211 50.13C356.736 50.6029 355.787 50.6029 354.839 50.6029C352.467 50.6029 351.992 48.7112 351.992 45.8736H357.685C357.685 45.4007 357.685 44.9278 357.685 43.9819C357.685 40.6715 356.262 39.7256 354.364 39.7256C351.992 39.7256 350.095 42.0903 350.095 45.8736C350.095 49.657 351.518 52.0217 354.364 52.0217C355.787 52.0217 356.736 51.5487 357.685 51.0758L357.211 50.13ZM354.364 41.1444C355.787 41.1444 356.736 42.0903 356.736 44.4549V44.9278H351.992C351.992 42.0903 352.941 41.1444 354.364 41.1444ZM367.173 50.13C366.698 50.6029 365.75 50.6029 365.275 50.6029C362.903 50.6029 362.429 48.7112 362.429 45.8736C362.429 42.5632 363.378 41.1444 364.801 41.1444C365.75 41.1444 366.224 41.6173 367.173 41.6173L367.647 40.6715C366.698 40.1986 366.224 39.7256 364.801 39.7256C362.429 39.7256 361.006 42.0903 361.006 45.8736C361.006 49.657 361.954 52.0217 364.801 52.0217C365.75 52.0217 366.698 52.0217 367.647 51.0758L367.173 50.13ZM376.186 52.0217H378.084L374.763 46.8195L373.814 45.8736L374.763 44.9278L377.609 40.1986H376.186L372.865 45.4007H372.391V40.1986H370.968V52.0217H372.391V46.3466H373.34L376.186 52.0217ZM379.981 45.8736C379.981 50.13 381.404 52.0217 384.25 52.0217C386.622 52.0217 388.046 50.13 388.046 45.8736C388.046 42.0903 387.097 39.7256 384.25 39.7256C381.404 39.7256 379.981 41.6173 379.981 45.8736ZM381.404 45.8736C381.404 42.5632 382.353 41.1444 384.25 41.1444C386.148 41.1444 386.622 43.0361 386.622 45.8736C386.622 49.1841 385.674 50.6029 384.25 50.6029C382.353 50.6029 381.404 48.7112 381.404 45.8736ZM397.533 52.0217H398.956V40.1986H398.008L393.738 47.2924L393.264 49.1841V47.2924V40.1986H391.841V52.0217H392.789L397.059 44.9278L397.533 43.0361V44.9278V52.0217ZM392.789 35.9422C392.789 37.8339 394.213 38.7798 395.636 38.7798C397.059 38.7798 398.008 37.8339 398.482 35.9422L397.533 35.4693C397.059 36.8881 396.584 37.361 395.636 37.361C394.687 37.361 394.213 36.8881 393.738 35.4693L392.789 35.9422ZM415.56 52.0217H417.457V40.1986H415.56L413.188 45.4007L412.714 46.8195L412.239 45.4007L409.393 40.1986H407.97V52.0217H409.393V44.4549V42.5632L409.867 44.4549L412.239 49.1841H412.714L415.085 44.4549L416.034 42.5632L415.56 44.4549V52.0217ZM427.419 50.13C426.945 50.6029 425.996 50.6029 425.522 50.6029C423.15 50.6029 422.201 48.7112 422.201 45.8736H428.368C428.368 45.4007 428.368 44.9278 428.368 43.9819C428.368 40.6715 426.471 39.7256 425.047 39.7256C422.201 39.7256 420.778 42.0903 420.778 45.8736C420.778 49.657 422.201 52.0217 425.047 52.0217C425.996 52.0217 427.419 51.5487 427.894 51.0758L427.419 50.13ZM425.047 41.1444C425.996 41.1444 426.945 42.0903 426.945 44.4549V44.9278H422.201C422.201 42.0903 423.624 41.1444 425.047 41.1444ZM439.753 50.6029H438.33V40.1986H432.638C432.638 46.8195 431.689 49.657 431.214 50.6029H430.266V54.8592H431.214V52.0217H438.33L438.805 54.8592H439.753V50.6029ZM432.638 50.6029C433.586 48.2383 434.061 43.9819 434.061 41.6173H436.907V50.6029H432.638ZM448.767 52.0217H450.19V40.1986H449.241L444.972 47.2924L444.023 49.1841V47.2924V40.1986H442.6V52.0217H443.548L447.818 44.9278L448.767 43.0361V44.9278V52.0217ZM462.524 50.6029H461.101V40.1986H459.677V50.6029H455.408V40.1986H453.985V52.0217H461.101L461.575 54.8592H462.524V50.6029ZM471.063 52.0217H472.96V40.1986H472.011L467.742 47.2924L466.793 49.1841V47.2924V40.1986H465.37V52.0217H466.319L470.588 44.9278L471.537 43.0361L471.063 44.9278V52.0217ZM482.448 52.0217H483.871V40.1986H482.448V45.4007H478.178V40.1986H476.755V52.0217H478.178V46.3466H482.448V52.0217ZM489.564 45.8736C490.038 45.8736 490.512 45.8736 490.987 45.8736C492.41 45.8736 492.884 46.8195 492.884 48.2383C492.884 49.657 492.41 50.6029 490.987 50.6029C490.512 50.6029 490.038 50.6029 489.564 50.6029V45.8736ZM489.564 40.1986H488.14V52.0217C488.615 52.0217 489.564 52.0217 490.512 52.0217C493.359 52.0217 494.307 50.6029 494.307 47.7653C494.307 45.8736 493.833 44.4549 490.987 44.4549C490.512 44.4549 490.038 44.4549 489.564 44.9278V40.1986ZM495.731 52.0217H497.154V40.1986H495.731V52.0217Z" fill="#34386D"/>
<path d="M300.759 129.581H307.875V128.162H302.182V121.542H307.4V120.123H302.182V114.448H307.875V113.029H300.759V129.581ZM318.786 129.581H320.683V113.029H313.567C313.093 121.069 312.619 125.325 312.144 126.744C311.67 128.162 311.195 128.162 310.247 128.162V129.581C310.721 129.581 310.721 129.581 311.195 129.581C312.144 129.581 313.093 129.108 313.567 127.69C314.516 125.325 314.516 120.596 314.991 114.448H318.786V129.581ZM324.953 129.581H332.068V128.162H326.376V121.542H331.594V120.123H326.376V114.448H332.068V113.029H324.953V129.581ZM344.402 129.581H345.825V113.029H344.402V120.596H337.761V113.029H336.338V129.581H337.761V121.542H344.402V129.581ZM360.057 129.581H361.48V113.029H360.057V129.581ZM350.095 129.581C351.044 129.581 352.467 129.581 352.941 129.581C356.262 129.581 358.159 128.162 358.159 124.379C358.159 120.123 355.787 119.177 353.416 119.177C352.941 119.177 351.992 119.65 351.518 119.65V113.029H350.095V129.581ZM353.416 128.162C352.467 128.162 351.992 128.162 351.518 128.162V121.069C351.992 121.069 352.467 120.596 352.941 120.596C354.839 120.596 356.262 121.542 356.262 124.379C356.262 127.217 355.313 128.162 353.416 128.162ZM379.032 127.69C378.558 128.162 377.609 128.635 376.66 128.635C373.814 128.635 371.917 126.271 371.917 121.069C371.917 115.866 374.288 113.975 376.186 113.975C377.609 113.975 378.558 114.448 379.032 114.448L379.507 113.502C378.558 113.029 377.609 112.556 376.186 112.556C373.34 112.556 370.493 114.921 370.493 121.069C370.493 127.217 372.865 130.054 376.186 130.054C377.609 130.054 378.558 129.581 379.507 129.108L379.032 127.69ZM390.417 129.581H392.315L387.571 122.014L386.622 121.069L387.097 120.123L391.841 113.029H389.943L385.674 120.596H384.725V113.029H382.827V129.581H384.725V122.014H385.674L390.417 129.581ZM395.636 129.581H397.533V122.96C397.533 123.433 398.482 123.433 398.956 123.433C401.328 123.433 404.175 122.014 404.175 117.758C404.175 113.975 401.328 113.029 398.956 113.029C398.008 113.029 396.584 113.029 395.636 113.029V129.581ZM398.956 114.448C400.854 114.448 402.277 114.921 402.277 117.758C402.277 121.069 400.854 122.014 398.956 122.014C398.482 122.014 397.533 122.014 397.533 121.542V114.448C397.533 114.448 398.482 114.448 398.956 114.448ZM415.56 129.581H417.457V113.029H416.509L409.867 124.379L408.918 126.744V124.379V113.029H407.495V129.581H408.444L415.085 118.231L416.034 116.339L415.56 118.231V129.581ZM429.317 129.581H431.214V113.029H421.727V129.581H423.15V114.448H429.317V129.581ZM442.6 129.581H444.497L439.753 122.014L438.805 121.069L439.753 120.123L444.023 113.029H442.125L437.856 120.596H436.907V113.029H435.484V129.581H436.907V122.014H437.856L442.6 129.581ZM456.357 129.581H457.78V113.029H456.831L450.664 124.379L449.715 126.744V124.379V113.029H448.292V129.581H449.241L455.408 118.231L456.357 116.339V118.231V129.581ZM470.114 129.581H472.011V113.029H470.114V120.596H463.947V113.029H462.524V129.581H463.947V121.542H470.114V129.581ZM475.806 121.069C475.806 126.744 477.23 130.054 481.025 130.054C484.82 130.054 486.717 126.744 486.717 121.069C486.717 115.866 484.82 112.556 481.025 112.556C477.704 112.556 475.806 115.866 475.806 121.069ZM477.23 121.069C477.23 116.339 478.653 113.975 481.025 113.975C483.871 113.975 484.82 117.758 484.82 121.069C484.82 126.271 483.397 128.635 481.025 128.635C478.178 128.635 477.23 124.852 477.23 121.069ZM498.577 129.581H500V113.029H499.051L492.884 124.379L491.936 126.744V124.379V113.029H490.512V129.581H491.461L497.628 118.231L498.577 116.339V118.231V129.581ZM492.41 109.245C492.41 111.137 493.833 112.083 495.256 112.083C497.154 112.083 498.102 111.137 498.577 109.245H497.154C497.154 110.191 496.679 111.137 495.256 111.137C494.307 111.137 493.833 110.191 493.833 108.773L492.41 109.245Z" fill="#34386D"/>
<path fill-rule="evenodd" clip-rule="evenodd" d="M209.203 39.2527H216.319V59.1155H209.203V39.2527Z" fill="#E50E78"/>
<path fill-rule="evenodd" clip-rule="evenodd" d="M283.681 104.989H290.797V131H283.681V104.989Z" fill="#E50E78"/>
<path fill-rule="evenodd" clip-rule="evenodd" d="M65.4649 0C90.1328 0 111.48 13.2419 122.865 33.1047L113.378 39.7256C103.89 22.7004 86.3378 11.3502 65.4649 11.3502C35.5788 11.3502 10.9108 35.4693 10.9108 65.7365C10.9108 95.5307 35.5788 119.65 65.4649 119.65C95.3511 119.65 120.019 95.5307 120.019 65.7365H130.93C130.93 101.679 101.518 131 65.4649 131C29.4118 131 0 101.679 0 65.7365C0 29.3213 29.4118 0 65.4649 0ZM107.211 43.9819L99.6205 48.7112L46.0152 84.6534L40.3226 76.1408L91.556 41.6173C91.556 41.1444 91.556 41.1444 91.556 41.1444H91.0816V40.6715C90.6072 40.6715 90.6072 40.1986 90.6072 40.1986C90.1328 40.1986 90.1328 39.7256 90.1328 39.7256C89.6584 39.7256 89.6584 39.7256 89.6584 39.2527C89.1841 39.2527 89.1841 39.2527 89.1841 38.7798H88.7097V38.3069C88.2353 38.3069 88.2353 37.8339 87.7609 37.8339L87.2865 37.361C86.8121 37.361 86.8121 36.8881 86.8121 36.8881H86.3378V36.4152H85.8634C85.389 35.9422 85.389 35.9422 85.389 35.9422C84.9146 35.9422 84.9146 35.9422 84.9146 35.4693H84.4402H83.9659C83.9659 34.9964 83.9659 34.9964 83.4915 34.9964L83.0171 34.5235H82.5427C82.5427 34.0505 82.0683 34.0505 82.0683 34.0505C82.0683 34.0505 81.5939 34.0505 81.5939 33.5776H81.1195C80.6452 33.5776 80.6452 33.1047 80.6452 33.1047H80.1708H79.6964C79.6964 32.6318 79.222 32.6318 79.222 32.6318H78.7476L78.2732 32.1588H77.7989C77.7989 32.1588 77.7989 32.1588 77.3245 32.1588L76.8501 31.6859H76.3757C75.9013 31.6859 75.9013 31.6859 75.9013 31.6859L75.4269 31.213C75.4269 31.213 75.4269 31.213 74.9526 31.213H74.4782C74.4782 31.213 74.0038 31.213 74.0038 30.7401C73.5294 30.7401 73.5294 30.7401 73.5294 30.7401H73.055H72.5807H72.1063L71.6319 30.2671H71.1575H70.6831H70.2087H69.7344H69.26H68.7856C68.3112 30.2671 68.3112 30.2671 68.3112 30.2671H67.8368H67.3624V29.7942H66.888H66.4137H65.9393H65.4649C46.0152 29.7942 29.8862 45.8736 29.8862 65.7365C29.8862 85.1264 46.0152 101.206 65.4649 101.206C84.9146 101.206 101.044 85.1264 101.044 65.7365H112.429C112.429 91.2744 91.556 112.083 65.4649 112.083C39.3738 112.083 18.5009 91.2744 18.5009 65.7365C18.5009 39.7256 39.3738 18.917 65.4649 18.917C83.4915 18.917 99.1461 28.8484 107.211 43.9819Z" fill="#E50E78"/>
</g>
<defs>
<clipPath id="clip0">
<rect width="500" height="131" fill="white"/>
</clipPath>
</defs>
</svg>
