<svg width="163" height="36" viewBox="0 0 163 36" fill="none" xmlns="http://www.w3.org/2000/svg">
<path fill-rule="evenodd" clip-rule="evenodd" d="M33.2097 28.5271C34.9794 22.867 36.6649 19.1123 38.4628 13.6797C39.1091 11.8025 39.6427 10.75 39.4742 9.66906C39.1653 7.93402 38.0134 7.45057 36.8896 8.92965C36.7211 9.21403 36.5245 9.44156 36.3841 9.69748C35.71 10.8353 35.1199 12.03 34.3332 13.4235C31.9736 17.5479 30.2038 22.9808 28.9677 24.8295C27.3665 27.3893 25.147 26.9058 24.4729 24.3176C22.6751 25.6543 20.5118 24.2323 20.5961 21.8998C20.6523 19.8235 21.1862 17.1782 21.4671 15.045C21.8322 12.4282 22.5625 5.77243 22.5063 2.18835C22.4501 1.73332 22.422 1.4205 22.3378 1.07925C21.9164 -0.143889 20.6804 -0.286089 19.6411 0.453314C19.051 0.851721 18.5454 1.73332 18.2927 2.87113C17.843 4.52085 17.7026 6.31276 17.4779 8.10467C17.3374 9.29936 15.3991 19.9657 14.9495 20.8189C13.5451 23.7202 8.60067 18.8563 4.92072 17.747C0.847246 16.6094 -1.68087 18.7426 1.325 20.5629C3.31947 21.8145 9.97723 27.0765 11.6346 28.8684C12.0562 29.2952 12.1405 29.3237 12.5337 29.6934C13.1235 30.2906 13.4889 30.8312 14.1349 31.3999C17.843 34.8416 24.3887 36.4628 29.3328 33.8747C30.3442 33.3341 30.5689 33.1065 31.2714 32.3671C32.451 31.144 32.7038 30.0631 33.2097 28.5271Z" fill="#2E3071"/>
<path fill-rule="evenodd" clip-rule="evenodd" d="M95.012 35.1258H100.378L102.597 24.6872C105.547 24.3175 105.631 26.3938 106.08 28.6407L107.26 35.1258H112.71L111.39 28.4985C111.081 26.8772 110.35 25.5691 109.76 24.9147C109.395 24.545 109.086 24.3744 108.665 24.0331C109.536 23.4925 110.21 23.265 110.884 22.8384C111.98 22.1841 113.019 21.274 114.059 19.4252C115.323 17.1781 115.969 13.7364 114.705 11.2049C113.44 8.58796 111.334 8.07606 107.625 8.07606C104.226 8.07606 100.855 8.01918 97.4561 8.07606L96.6413 12.3427H99.5348L95.012 35.1258ZM103.496 20.4206L105.125 12.428C107.485 12.3427 111.39 11.7455 109.676 16.979C108.44 20.705 106.108 20.4775 103.496 20.4206Z" fill="#2E3071"/>
<path fill-rule="evenodd" clip-rule="evenodd" d="M145.409 35.1258H150.185L151.871 27.56C153.921 27.3891 154.09 28.47 154.539 30.6888L155.41 35.1542L160.355 35.0976L159.68 31.6842C158.95 28.47 159.231 27.8728 157.376 25.8532L162.995 17.5762L157.882 17.633C156.618 19.3681 155.466 21.5299 154.343 23.3219H152.742C152.657 21.8143 155.382 11.0911 155.775 8.10449H147.882L147.123 12.3711H149.988C149.539 16.0118 145.466 33.277 145.409 35.1258Z" fill="#2E3071"/>
<path fill-rule="evenodd" clip-rule="evenodd" d="M55.2613 28.1003H50.8228L50.2329 30.8026H46.6372L51.3005 8.10449L42.7323 8.21824L41.7493 12.3995H44.8672L40.0916 35.1258L53.8006 35.0689L55.2613 28.1003Z" fill="#2E3071"/>
<path fill-rule="evenodd" clip-rule="evenodd" d="M117.682 35.5527C118.104 35.7233 118.581 35.8371 119.227 35.9224C123.638 36.3774 125.857 34.7277 127.206 32.9358C128.442 31.3145 128.835 30.0914 129.341 28.1288C130.071 25.4551 130.464 22.3834 128.807 20.0793C127.037 17.6331 123.441 16.8652 120.042 18.2874C117.373 19.4253 115.407 21.7291 114.424 24.8579C113.918 26.4791 113.609 28.3563 113.777 30.1482C114.002 32.7083 115.238 34.6139 117.682 35.5527ZM119.171 29.7501C118.862 28.6407 119.031 27.4179 119.452 25.7966C119.902 24.0613 121.166 21.1603 123.301 21.8997C124.986 22.4116 125.071 27.4463 123.301 30.0629C121.952 32.1395 119.873 32.4523 119.171 29.7501Z" fill="#2E3071"/>
<path fill-rule="evenodd" clip-rule="evenodd" d="M58.0147 34.1311C60.8801 37.6296 66.4986 35.2402 68.9987 34.3586L68.1841 30.6895C65.9647 31.4573 62.7061 33.1355 61.8354 29.7223C65.5153 30.0351 68.7178 28.8404 70.5437 25.6263C75.0947 17.5484 63.7736 14.6471 58.9418 21.1322C57.2563 23.3794 56.4134 25.7688 56.3573 28.8973C56.3573 28.8689 56.1045 31.7701 58.0147 34.1311ZM61.9758 26.2522C62.2567 24.375 63.1554 22.2416 64.8409 21.9003C66.1897 21.6159 66.7233 22.6115 66.4422 23.7775C66.3298 24.2897 66.1332 24.8016 65.6838 25.2566C64.8409 26.0816 63.5206 26.3091 61.9758 26.2522Z" fill="#2E3071"/>
<path fill-rule="evenodd" clip-rule="evenodd" d="M83.0727 25.0572C83.8033 27.9585 87.9607 28.3566 88.4666 29.6935C89.4218 32.1398 84.9832 32.4526 82.4267 30.3761L80.7131 34.0455C82.0335 35.7521 86.1067 36.2071 88.6913 35.6667C91.8095 35.0124 93.5793 32.4526 93.7197 29.3238C93.804 27.9016 93.495 27.162 92.2589 26.0244C91.1635 25.0572 89.8993 24.7728 88.8879 24.09C88.3542 23.7203 88.1576 23.635 88.2138 22.9525C88.298 21.7009 89.3092 21.7578 90.7981 21.8147L90.4891 23.6919L93.9728 23.635L96.2481 16.5527L91.978 16.6096L91.7533 17.6618C89.6184 17.5196 87.1462 17.4628 85.4607 18.7996C85.4607 18.8281 82.1739 21.5303 83.0727 25.0572Z" fill="#2E3071"/>
<path fill-rule="evenodd" clip-rule="evenodd" d="M133.077 34.5281C133.526 34.9546 134.201 35.353 135.212 35.6374C136.335 36.0071 137.656 36.064 138.92 35.8649C139.735 35.7796 140.325 35.5806 140.858 35.4384C141.533 35.2675 142.094 35.0115 142.769 34.7556C143.05 34.6134 143.359 34.5281 143.668 34.329L142.853 30.6883C141.308 31.2002 135.774 34.0446 136.364 27.5595C136.729 23.8333 137.852 21.3588 141.954 21.8707L141.645 23.6626L145.1 23.6057L147.404 16.5234H143.19L142.881 17.7747C138.021 17.2628 135.408 18.6566 133.358 21.4441C131.672 23.6911 130.914 26.9052 131.139 30.1761C131.251 31.8258 131.785 33.4187 133.077 34.5281Z" fill="#2E3071"/>
<path fill-rule="evenodd" clip-rule="evenodd" d="M72.0325 35.1256H76.7239L79.4769 21.7574L82.1177 21.8142L83.4381 17.6614H80.4041L81.4433 12.3994H77.2578L75.7127 17.6614H73.2124L72.3976 21.7574H74.5328L72.0325 35.1256Z" fill="#2E3071"/>
<path fill-rule="evenodd" clip-rule="evenodd" d="M24.669 22.2692C25.5679 20.3067 26.2141 17.4054 26.4388 15.6135C26.6635 13.8785 26.158 13.1391 24.3601 12.8544C23.8543 12.7691 23.3487 12.7976 22.8993 13.1673C22.2249 13.6794 22.3092 14.5894 22.0283 16.097C21.5789 19.2258 20.6237 22.5823 21.9441 23.663C23.3768 24.8293 24.1916 23.407 24.669 22.2692Z" fill="#2E3071"/>
<path fill-rule="evenodd" clip-rule="evenodd" d="M28.4898 24.0894C29.9506 21.6434 31.7485 17.3768 30.8494 15.9546C30.091 14.8171 27.9559 14.2196 27.3096 16.0399C26.804 17.4621 26.3546 19.6809 25.9895 20.9037C25.5679 22.2406 24.95 24.0328 25.4836 24.9428C26.4389 26.621 27.8435 25.1135 28.4898 24.0894Z" fill="#2E3071"/>
<path fill-rule="evenodd" clip-rule="evenodd" d="M83.2974 15.187H86.6967L89.1405 8.10449H84.7584L83.2974 15.187Z" fill="#2E3071"/>
</svg>
