<svg width="34" height="34" viewBox="0 0 34 34" fill="none" xmlns="http://www.w3.org/2000/svg">
<path fill-rule="evenodd" clip-rule="evenodd" d="M17 0C23.4058 0 28.9493 3.43682 31.9058 8.59206L29.442 10.3105C26.9783 5.8917 22.4203 2.94585 17 2.94585C9.23913 2.94585 2.83333 9.20578 2.83333 17.0614C2.83333 24.7942 9.23913 31.0542 17 31.0542C24.7609 31.0542 31.1667 24.7942 31.1667 17.0614H34C34 26.3899 26.3623 34 17 34C7.63768 34 0 26.3899 0 17.0614C0 7.61011 7.63768 0 17 0ZM27.8406 11.4152L25.8696 12.6426L11.9493 21.9711L10.471 19.7617L23.7754 10.8014C23.7754 10.6787 23.7754 10.6787 23.7754 10.6787H23.6522V10.556C23.529 10.556 23.529 10.4332 23.529 10.4332C23.4058 10.4332 23.4058 10.3105 23.4058 10.3105C23.2826 10.3105 23.2826 10.3105 23.2826 10.1877C23.1594 10.1877 23.1594 10.1877 23.1594 10.065H23.0362V9.94224C22.913 9.94224 22.913 9.81949 22.7899 9.81949L22.6667 9.69675C22.5435 9.69675 22.5435 9.57401 22.5435 9.57401H22.4203V9.45126H22.2971C22.1739 9.32852 22.1739 9.32852 22.1739 9.32852C22.0507 9.32852 22.0507 9.32852 22.0507 9.20578H21.9275H21.8043C21.8043 9.08303 21.8043 9.08303 21.6812 9.08303L21.558 8.96029H21.4348C21.4348 8.83755 21.3116 8.83755 21.3116 8.83755C21.3116 8.83755 21.1884 8.83755 21.1884 8.7148H21.0652C20.942 8.7148 20.942 8.59206 20.942 8.59206H20.8188H20.6957C20.6957 8.46931 20.5725 8.46931 20.5725 8.46931H20.4493L20.3261 8.34657H20.2029C20.2029 8.34657 20.2029 8.34657 20.0797 8.34657L19.9565 8.22383H19.8333C19.7101 8.22383 19.7101 8.22383 19.7101 8.22383L19.587 8.10108C19.587 8.10108 19.587 8.10108 19.4638 8.10108H19.3406C19.3406 8.10108 19.2174 8.10108 19.2174 7.97834C19.0942 7.97834 19.0942 7.97834 19.0942 7.97834H18.971H18.8478H18.7246L18.6014 7.8556H18.4783H18.3551H18.2319H18.1087H17.9855H17.8623C17.7391 7.8556 17.7391 7.8556 17.7391 7.8556H17.6159H17.4928V7.73285H17.3696H17.2464H17.1232H17C11.9493 7.73285 7.76087 11.9061 7.76087 17.0614C7.76087 22.0939 11.9493 26.2671 17 26.2671C22.0507 26.2671 26.2391 22.0939 26.2391 17.0614H29.1957C29.1957 23.6895 23.7754 29.0903 17 29.0903C10.2246 29.0903 4.80435 23.6895 4.80435 17.0614C4.80435 10.3105 10.2246 4.90975 17 4.90975C21.6812 4.90975 25.7464 7.48736 27.8406 11.4152Z" fill="#E50E78"/>
</svg>
